<svg xmlns="http://www.w3.org/2000/svg" width="295" height="65" viewBox="0 0 295 65"><path fill="#FFF" d="M161.294 26.406h-2.985v-2.862h-6.98v2.862h-2.974v-6.33h.88c.47-1.362.85-3.153 1.147-5.37.3-2.222.446-4.647.446-7.28v-.503h9.582v13.132h.88v6.35h.002zm-5.213-6.35v-9.85h-1.28v.125c0 3.18-.34 6.42-1.026 9.728h2.31l-.003-.002zm17.11 3.488h-4.333V10.248h-1.265v9.406c0 1.24-.16 2.127-.48 2.668-.32.54-.804.88-1.452 1.017-.65.136-1.686.204-3.104.204h-.68V20.68c.525 0 .89-.062 1.086-.194.2-.13.3-.574.3-1.332V6.924h9.927v16.62zm11.344 0h-4.332v-7.48c-.544 0-.9.09-1.06.272-.164.18-.242.58-.242 1.196v6.013h-4.012V18.59c0-.842.045-1.483.14-1.92.092-.44.306-.8.64-1.087.338-.287.87-.525 1.594-.72-.994-.087-1.637-.37-1.93-.843-.295-.48-.443-1.332-.443-2.563 0-1.105.14-1.975.41-2.602.27-.625.673-1.074 1.188-1.348.52-.275 1.117-.44 1.795-.5.678-.057 1.74-.085 3.18-.085h3.07v16.622zm-4.332-10.085V9.785H180c-.363 0-.64.08-.822.24-.185.158-.275.504-.275 1.03v.91c0 .62.076 1.02.23 1.208.153.188.512.284 1.07.285zm19.648-6.526v16.61h-4.32v-6.978h-1.286v6.978h-4.32V6.934h4.32v5.94h1.288v-5.94h4.32-.002zm9.203 0l2.47 16.61h-4.413l-.233-2.985h-1.547l-.26 2.983h-4.464l2.203-16.61h6.243zm-2.29 10.68c-.22-1.882-.435-4.205-.655-6.978-.443 3.182-.72 5.506-.828 6.977h1.482zm15.577-3.447h-4.32v-2.89c0-.838-.04-1.362-.138-1.57-.092-.208-.295-.312-.61-.312-.354 0-.58.13-.674.377-.098.256-.146.806-.146 1.645v7.717c0 .807.05 1.333.146 1.578.094.25.313.37.646.37.32 0 .53-.12.632-.37.1-.247.146-.826.146-1.738v-2.086h4.32v.645c0 1.72-.124 2.94-.36 3.658-.245.72-.778 1.35-1.61 1.894-.834.54-1.86.812-3.075.812-1.265 0-2.31-.23-3.13-.688-.82-.46-1.36-1.094-1.63-1.905-.27-.81-.4-2.028-.4-3.655V12.79c0-1.196.04-2.095.122-2.692.083-.6.33-1.176.733-1.73.406-.554.97-.99 1.69-1.308.724-.32 1.554-.478 2.49-.478 1.27 0 2.322.247 3.145.737.828.492 1.375 1.103 1.635 1.84.262.732.39 1.873.39 3.425v1.58l-.003.002zm10.248-7.233v3.323h-2.563v13.287h-4.32V10.257h-2.55V6.934h9.433zm10.853 9.726c0 1.668-.033 2.85-.112 3.545-.08.693-.324 1.328-.743 1.902-.41.572-.97 1.016-1.673 1.322-.704.307-1.527.46-2.467.46-.89 0-1.684-.145-2.39-.436-.712-.29-1.28-.728-1.71-1.31-.436-.582-.688-1.213-.77-1.898-.084-.684-.125-1.88-.125-3.59v-2.842c0-1.668.04-2.85.12-3.545.08-.695.325-1.33.737-1.9.412-.578.973-1.02 1.678-1.326.703-.308 1.522-.462 2.46-.462.892 0 1.69.145 2.396.438.708.292 1.28.73 1.708 1.31.433.58.688 1.212.77 1.898.085.685.12 1.88.12 3.59v2.842h.003zm-4.314-5.458c0-.772-.04-1.267-.128-1.483-.087-.218-.264-.324-.53-.324-.223 0-.396.086-.516.26-.12.176-.183.69-.183 1.547v7.755c0 .965.04 1.56.12 1.783.076.228.26.34.545.34.295 0 .48-.13.563-.39.084-.26.124-.88.124-1.856l.002-7.634.002.002zm15.55 12.342h-4.322v-7.48c-.547 0-.904.09-1.065.272-.163.18-.24.58-.24 1.196v6.013h-4.01V18.59c0-.842.045-1.483.136-1.92.093-.44.308-.8.642-1.087s.87-.525 1.598-.72c-.996-.087-1.643-.37-1.934-.843-.293-.48-.44-1.332-.44-2.563 0-1.105.138-1.975.41-2.602.272-.625.67-1.074 1.188-1.348.52-.275 1.117-.44 1.797-.5.676-.057 1.733-.085 3.18-.085h3.064l-.004 16.622zm-4.322-10.085V9.785h-.21c-.36 0-.635.08-.817.24-.188.158-.278.504-.278 1.03v.91c0 .62.073 1.02.228 1.208.154.188.512.284 1.076.285zm22.392 12.946h-2.977v-2.862h-13.41V6.924h4.327V20.22h1.244V6.923h4.33V20.22h1.28V6.923h4.32V20.22h.883l.003 6.186zm10.906-2.862h-3.61V15.98l-2.25 7.563h-3.782V6.923h3.61v7.5l2.422-7.5h3.61v16.62zm10.478-16.61l-1.52 7.346 2.292 9.265h-4c-.48-1.657-.918-3.675-1.315-6.054-.106 1.058-.262 2.17-.456 3.347l-.403 2.71h-4.203l1.567-9.266-1.566-7.345h4.175c.074.46.224 1.22.445 2.287.184.814.33 1.564.443 2.25l.922-4.536h3.62v-.002zM175.027 28.725v33.237h-7.56l-.01-22.438-3.01 22.438h-5.36l-3.17-21.925-.01 21.925h-7.555V28.725h11.18c.338 1.998.68 4.353 1.03 7.065l1.224 8.456 1.992-15.52h11.249zm20.582-.022l-2.355 22.03c-.37 3.474-.767 5.915-1.19 7.315-.42 1.403-1.246 2.404-2.465 3.008-1.215.603-3.222.902-6.013.902h-5.05v-4.29h.512c1.142 0 1.84-.092 2.107-.276.267-.187.4-.47.4-.854 0-.025-.163-.963-.49-2.813L176.52 28.7h7.51l2.745 20.715 1.332-20.715h7.5l.002.003zm11.28 18.97c-1.823.042-2.733.82-2.733 2.34v8.747c0 1.164-.127 1.987-.38 2.475-.253.484-.44.73-.546.73h-7.14c.616-.89.924-2.212.924-3.963v-7.475c0-1.588.44-2.8 1.324-3.633.883-.836 2.396-1.432 4.545-1.785v-.044c-3.883-.205-5.826-2.014-5.826-5.42v-7.04c0-1.74-.31-3.04-.925-3.902h7.138c.203.082.412.38.62.896.21.513.31 1.27.31 2.27v8.27c0 1.522.895 2.31 2.69 2.36V28.7h8.665v13.8c1.82-.055 2.73-.84 2.73-2.36v-8.273c0-1.15.12-1.965.365-2.444.252-.476.438-.717.563-.717h7.14c-.617.864-.928 2.163-.928 3.9v7.042c0 3.406-1.947 5.215-5.85 5.42v.043c2.146.355 3.667.952 4.56 1.786.89.834 1.332 2.045 1.332 3.633V58c0 1.75.31 3.072.92 3.962h-7.134c-.223-.097-.436-.403-.63-.924-.203-.52-.302-1.278-.302-2.278v-8.746c0-1.52-.925-2.3-2.77-2.342v14.29h-8.665v-14.29h-.002.006zm33.38 1.54c-.697.738-1.61 1.332-2.728 1.775-1.127.445-2.26.668-3.41.668-2.065 0-3.567-.575-4.508-1.725-.937-1.15-1.403-2.93-1.403-5.337v-15.89h8.663V43.67c0 1.3.112 2.195.34 2.678.225.488.598.732 1.117.732 1.29 0 1.932-1.11 1.932-3.326v-15.05h8.664V61.96h-8.664V49.21l-.002.003zm31.41 12.75h-7.228v-15.13l-4.495 15.13h-7.577v-33.26h7.228v15.01l4.847-15.01h7.228v33.26h-.003zM295 28.724v33.237h-8.643v-13.96h-2.586v13.96h-8.644V28.725h8.645V40.61h2.587V28.726H295zM140.81 0h1.898v64.676h-1.898V0z"/><g><path fill="#047940" d="M124.745 15.95v9.37c-.26-.016-.516-.026-.773-.043v-4.844-4.844c.6.007 1.2.02 1.798.03.977.016 1.754.214 2.33.596-.445-.145-.967-.224-1.558-.23-.6-.014-1.2-.024-1.797-.036zm-1.44-.807V24.833c.565.032 1.127.06 1.7.09 1.51.086 2.546-.267 3.124-1.072.583-.805.89-2.05.89-3.73 0-1.508-.283-2.704-.84-3.586-.556-.882-1.58-1.335-3.076-1.36-.603-.012-1.2-.023-1.8-.03zm2.06-4.352c2.886 0 4.995.744 6.324 2.233 1.338 1.506 2.01 3.934 2.01 7.262 0 1.473-.14 2.8-.41 3.984-.268 1.18-.74 2.172-1.4 2.972-.656.8-1.52 1.398-2.584 1.785-1.066.385-2.408.505-4.024.385-.658-.05-1.317-.095-1.977-.144V40.77c-1.626-.193-3.243-.383-4.86-.567V25.497 10.79h6.92z"/><path fill="#047940" d="M130.844 12.268c.92.37 1.68.89 2.284 1.565 1.34 1.506 2.012 3.932 2.012 7.263 0 1.468-.14 2.796-.41 3.98-.267 1.183-.74 2.175-1.4 2.977-.655.798-1.52 1.4-2.585 1.782-1.067.384-2.406.504-4.024.383-.66-.045-1.317-.096-1.974-.14v11.5c-1.63-.192-3.246-.38-4.863-.568v-.273c1.36.158 2.72.315 4.09.48v-5.753-5.752c.66.05 1.32.095 1.976.146 1.617.12 2.96 0 4.025-.387 1.066-.384 1.928-.982 2.586-1.78.66-.804 1.13-1.796 1.4-2.975.27-1.184.41-2.513.41-3.984 0-3.328-.672-5.753-2.013-7.26-.426-.478-.93-.878-1.513-1.202zM14.13 11.6h.77v4.29c-2.958.052-5.916.102-8.862.16v6.996l-.77.037v-7.398c2.944-.054 5.904-.105 8.862-.162V11.6zM9.67 27.92c-.517-.156-1.145-.207-1.885-.158l-1.748.13v9.41c-.257.03-.513.06-.77.087v-4.93-4.933l1.748-.13c1.162-.08 2.048.1 2.655.523zM4.6 22.638c.682-.034 1.367-.075 2.06-.108 1.616-.08 2.956.07 4.01.435 1.065.36 1.913.903 2.55 1.63.643.728 1.1 1.628 1.367 2.706.27 1.085.408 2.313.408 3.682 0 3.06-.676 5.408-2.023 7.1-1.36 1.69-3.442 2.7-6.252 3.065-2.325.302-4.646.64-6.97.96V26.448 10.79h13.713v4.287c-2.96.056-5.918.105-8.863.162v7.398zm0 14.304c.612-.064 1.223-.14 1.833-.21.237-.027.453-.098.623-.206 1.316-.245 2.187-.826 2.623-1.753.425-.91.632-2.03.632-3.346 0-1.638-.29-2.81-.862-3.532-.576-.728-1.616-1.047-3.102-.94-.586.04-1.174.086-1.748.126V36.943z"/><path fill="#047940" d="M12.465 23.904c.9.36 1.627.86 2.194 1.5.643.73 1.097 1.63 1.365 2.704.27 1.084.408 2.314.408 3.683 0 3.064-.675 5.41-2.024 7.1-1.357 1.694-3.44 2.702-6.25 3.064-2.327.305-4.647.646-6.972.962v-.473c2.067-.284 4.132-.583 6.2-.852 2.812-.362 4.893-1.37 6.25-3.068 1.35-1.685 2.024-4.036 2.024-7.095 0-1.37-.137-2.6-.407-3.686-.27-1.073-.723-1.973-1.365-2.7-.396-.45-.87-.826-1.425-1.136zM109.016 23.556l.77.024v4.24c-2.622-.12-5.244-.235-7.866-.354V35.246l-.77-.05V31.15v-4.048l7.865.356v-3.902zM110.188 11.6h.774v4.178c-3.02-.038-6.037-.074-9.042-.107V22.98l-.77-.024v-3.824-3.827c3.004.034 6.02.07 9.037.11V11.6zM97.058 39.323v-.317c4.377.283 8.754.63 13.13 1v-3.87l.774.058v4.176c-4.636-.39-9.27-.758-13.904-1.047z"/><path fill="#047940" d="M95.62 38.515V24.657 10.79h13.902v4.176c-3.017-.038-6.034-.07-9.04-.107v7.651c2.62.087 5.245.173 7.867.266v4.238c-2.624-.122-5.247-.24-7.868-.354V34.755c3.005.196 6.022.405 9.04.632v4.176c-4.633-.397-9.267-.76-13.9-1.048zM81.755 27.84c-.35.062-.7.11-1.05.142-.61.056-1.195.07-1.736.065-1.042-.014-1.988-.124-2.802-.332-.535-.138-1.02-.333-1.452-.584.217.088.446.158.68.22.815.205 1.762.316 2.805.33.537.01 1.125-.01 1.736-.065.608-.056 1.22-.155 1.82-.305v.53zM86.618 11.6h.77v27.322c-1.627-.073-3.244-.118-4.86-.165v-.34c1.36.036 2.72.075 4.09.14V11.6zM77.088 11.6V21.466c0 1.14.253 1.904.756 2.3l.076.056c-.332-.1-.613-.24-.847-.42-.502-.395-.753-1.16-.753-2.3v-9.5h.768z"/><path fill="#047940" d="M75.65 10.79v9.867c0 1.142.252 1.904.755 2.296.502.394 1.232.59 2.19.603.35.005.754-.026 1.2-.096.444-.072.874-.188 1.292-.338v-6.166-6.166h4.862V38.112c-1.627-.076-3.245-.12-4.863-.163v-5.542-5.542c-.6.148-1.21.248-1.82.305-.61.058-1.198.075-1.737.068-1.04-.018-1.988-.124-2.8-.334-.827-.21-1.532-.56-2.12-1.043-.586-.478-1.035-1.096-1.355-1.865-.314-.763-.468-1.7-.468-2.81V15.99v-5.2h4.863zM52.514 15.555c-1.428.008-2.848.02-4.27.025v-.37c1.42-.008 2.84-.018 4.27-.024v.37zM58.147 15.535V38.69c-1.628.038-3.244.08-4.862.125v-.387c1.36-.038 2.72-.073 4.092-.104V26.75 15.17c1.675-.01 3.352-.012 5.028-.012V11.6h.77v3.922c-1.674 0-3.35.004-5.028.013z"/><path fill="#047940" d="M56.71 14.723v23.154c-1.63.038-3.247.084-4.864.13v-11.63-11.635c-1.687.007-3.365.02-5.042.027v-3.98h14.934v3.923c-1.675 0-3.353.004-5.03.01zM27.91 11.644h.673c.636 2.448 1.293 4.896 1.93 7.323.528 2.01 1.07 4.02 1.61 6.018l-.215.844c-.082 0-.155.004-.225.007-.65-2.396-1.307-4.813-1.943-7.234-.604-2.308-1.226-4.632-1.83-6.96zM40.076 11.6h.877c-1.052 3.57-2.12 7.145-3.158 10.742-1.046 3.614-2.113 7.24-3.14 10.896-.436 1.546-.887 2.782-1.413 3.703-.528.93-1.078 1.65-1.664 2.154-.587.51-1.21.852-1.87 1.05-.658.187-1.35.338-2.07.413-.588.06-1.174.1-1.748.15v-.43c.324-.025.65-.055.976-.086.72-.074 1.415-.226 2.073-.415.657-.196 1.28-.537 1.868-1.046.586-.508 1.135-1.227 1.664-2.154.524-.925.98-2.158 1.413-3.7 1.026-3.656 2.092-7.285 3.137-10.9 1.003-3.473 2.035-6.93 3.054-10.375z"/><path fill="#047940" d="M31.24 25.382c.623-2.452 1.245-4.893 1.87-7.327.62-2.426 1.245-4.847 1.87-7.265h4.535c-1.053 3.568-2.122 7.146-3.16 10.743-1.045 3.614-2.112 7.24-3.137 10.894-.436 1.548-.888 2.783-1.413 3.703-.53.928-1.078 1.648-1.667 2.154-.585.504-1.208.855-1.867 1.046-.656.19-1.35.343-2.07.417-.586.06-1.173.1-1.75.148V36.31c.373-.03.745-.062 1.127-.087.742-.053 1.352-.326 1.82-.808.464-.477.862-1.207 1.184-2.184.038-.022.068-.112.097-.245.03-.136.06-.283.108-.436.05-.155.102-.294.144-.434.04-.14.07-.24.108-.296-1.104-3.44-2.21-6.905-3.306-10.392-1.105-3.507-2.205-7.037-3.305-10.595h4.72c.632 2.45 1.292 4.895 1.926 7.323.634 2.42 1.294 4.837 1.94 7.237.072-.003.144-.01.228-.01z"/><path fill="#FFF" d="M22.794 54.318c.013 2.592 1.974 3.902 3.916 3.89 1.623 0 3.333-.852 3.62-3.01h-1.92c-.207.818-.872 1.233-1.7 1.233-1.157-.01-1.898-.99-1.898-2.112 0-1.268.753-2.127 1.898-2.127.815 0 1.394.352 1.667 1.126h1.918c-.295-2.04-2.005-2.9-3.585-2.9-1.942 0-3.903 1.308-3.916 3.902zm11.772-2.073v5.89h1.928v-5.89h1.866V50.5h-5.67v1.745h1.876zm11.39-1.744H41.19v7.634h4.863v-1.738h-2.923V55.06h2.595v-1.736h-2.595v-1.078h2.823V50.5zm4.162 7.634h-.698V50.5h1.994v3.734l3.858-3.766h.708v7.665h-2.018V54.38l-3.844 3.754zm2.093-10.02c-.382.02-.75.064-1.122.108.032 1.223.72 1.864 1.896 1.864 1.21 0 1.864-.642 1.908-1.864-.37-.044-.742-.087-1.124-.108-.065.46-.36.6-.806.6-.458 0-.72-.196-.75-.6zm9.264 10.02v-2.91c.25 0 .49 0 .75-.044l1.68 2.954h2.168v-.31l-2.07-3.353c1.516-.97 1.47-2.41 1.47-3.97H63.47c0 1.428.097 2.888-1.852 2.888h-.143V50.5h-1.985v7.634h1.986zm16.066-2.4l1.394 2.4h2.104v-.3l-2.475-3.75 2.203-3.288V50.5H78.75l-1.223 1.983h-.053L76.266 50.5h-2.03v.296l2.204 3.29-2.464 3.75v.297h2.102l1.397-2.398h.065zm11.54 2.4h1.907v-.283l-3.444-7.45h-.84l-3.434 7.45v.284h1.907l.446-.964h3.01l.447.964zM88 55.504h-1.743l.862-2.004.88 2.003zm5.742 2.63h2.106l3.617-7.337V50.5h-2.113l-1.31 2.816h-.054L94.55 50.5h-2.182v.297l2.575 4.662-1.202 2.464v.21h.002zm7.944-3.816c.012 2.592 1.976 3.902 3.917 3.89 1.622 0 3.333-.852 3.618-3.01h-1.918c-.207.818-.873 1.233-1.698 1.233-1.158-.01-1.9-.99-1.9-2.112 0-1.268.754-2.127 1.9-2.127.814 0 1.393.352 1.666 1.126h1.92c-.297-2.04-2.006-2.9-3.585-2.9-1.944 0-3.907 1.308-3.92 3.902z"/></g></svg>